# xmcd
#
# Track frame offsets:
#	150
#	14173
#	25919
#	39134
#	50028
#	62566
#	76811
#	85701
#	98467
#	111681
#	123628
#	135795
#	149574
#	159479
#	181804
#	194309
#	204643
#	218224
#	232927
#	250587
#	265297
#	277256
#	293303
#	306256
#	323253
#	335439
#	346661
#
# Disc length: 4795
#
# Revision: 1
# Processed by: cddbd v1.5.1PL0 Copyright (c) Steve Scherf et al.
# Submitted via: audiograbber 1.81.02
# Normalized: r0:DSETVAR1
#
DISCID=7912b91b
DTITLE=Various Artist - Rhythm and Blues Collection - Disc 01
DYEAR=2002
DGENRE=R&B
TTITLE0=Wilson Pickett - Mustang Sally
TTITLE1=Sam And Dave - Soul Man
TTITLE2=Joe Tex - Show Me
TTITLE3=Wilson Pickett - Land Of Thousand Dances
TTITLE4=Otis Redding - (I Can't Get No) Satisfaction
TTITLE5=Ike And Tina Turner - Honky Tonk Woman
TTITLE6=Solomon Burke - Got To Get You Off My Mind
TTITLE7=Ray Charles And The Blues Brothers - Shake Your Tailfeathers
TTITLE8=Fontella Bass - Rescue Me
TTITLE9=Marvelletes, The - Destination Anywhere
TTITLE10=Otis Redding - Mr. Pitfull
TTITLE11=Eddie Floyd - Knock On Wood
TTITLE12=Otis Redding - Respect
TTITLE13=Ike And Tina Turner - Proud Mary
TTITLE14=Aretha Franklin - (You Make Me Feel Like) A Natural Woman
TTITLE15=Clarence Carter - Looking For A Fox
TTITLE16=Wilson Pickett - Sugar, Sugar
TTITLE17=Aretha Franklin And The Blues Brothers Band - Think
TTITLE18=Otis Redding - Fa-Fa-Fa-Fa-Fa (Sad Song) - Live
TTITLE19=Al Green - Let's Stay Together
TTITLE20=Martha Reeves And The Vandellas - Dancing In The Streets
TTITLE21=Aretha Franklin - Say A Little Prayer
TTITLE22=Sam And Dave - Aretha Franklin
TTITLE23=Al Green - Take Me To The River
TTITLE24=Otis Redding - Happy Song (Dum-Dum)
TTITLE25=Joe Tex - Dark End Of The Street
TTITLE26=Booker T And The MGs - Green Onions
EXTD=
EXTT0=
EXTT1=
EXTT2=
EXTT3=
EXTT4=
EXTT5=
EXTT6=
EXTT7=
EXTT8=
EXTT9=
EXTT10=
EXTT11=
EXTT12=
EXTT13=
EXTT14=
EXTT15=
EXTT16=
EXTT17=
EXTT18=
EXTT19=
EXTT20=
EXTT21=
EXTT22=
EXTT23=
EXTT24=
EXTT25=
EXTT26=
PLAYORDER=
